<svg width="358" height="310" viewBox="0 0 358 310" fill="none" xmlns="http://www.w3.org/2000/svg">
<path d="M357.561 126.262C359.508 156.712 337.165 189.264 312.666 212.989C288.491 236.745 262.339 251.528 236.552 267.484C210.944 283.294 185.521 300.423 155.882 306.578C126.388 312.91 92.8232 308.443 62.3172 293.852C31.6317 279.405 4.18453 254.688 0.94691 225.581C-2.43533 196.299 18.5714 162.481 27.0142 128.293C35.7809 94.1345 32.3425 59.314 46.5114 35.7538C60.5007 12.3395 92.4562 -0.105945 122.012 0.565242C151.747 1.09063 179.44 14.4411 209.132 22.9356C238.645 31.576 270.659 35.2452 299.874 51.1799C329.054 67.4367 355.47 95.6368 357.561 126.262Z" fill="#F1C21B"/>
</svg>
